<svg xmlns="http://www.w3.org/2000/svg" height="197.572" width="96.819"><g transform="translate(-1371.168 -2405.838)"><g fill="#d8e9f7" stroke="#3e4147" stroke-linecap="round" stroke-linejoin="round" stroke-width="2"><path d="M1425.4 2426.446c2.884 0 3.653-3.845.385-4.229h-14.014c-3.268.384-2.5 4.229.385 4.229 1.359 0 4.229.385 4.421 1.153s.192 3.461-1.153 4.614-3.076-.192-3.653 1.922a14.668 14.668 0 00-.384 4.422h14.782a14.664 14.664 0 00-.384-4.422c-.577-2.114-2.307-.768-3.653-1.922a2.5 2.5 0 01-.314-.352l-.732-4.445c.56-.646 3.069-.97 4.314-.97z"/><path d="M1435.827 2461.591h-33.369a7.906 7.906 0 01-7.883-7.882v-38.988a7.906 7.906 0 017.883-7.883h33.369a7.906 7.906 0 017.882 7.883v38.988a7.905 7.905 0 01-7.882 7.882zm1.733 2.662v-41.1a6.845 6.845 0 00-6.824-6.825h-23.187a6.845 6.845 0 00-6.825 6.825v41.1a6.845 6.845 0 006.825 6.825h23.187a6.845 6.845 0 006.824-6.825z"/><rect height="152.716" rx="26.026" width="84.15" x="1377.067" y="2437.994"/></g><path d="M1403.093 2590.71h11.118c-9.683-5.587-13.525-15.542-13.525-24.848v-105.157c0-11.515 1.622-18.337 5.219-22.711h-2.812a26.1 26.1 0 00-26.026 26.026v100.665a26.1 26.1 0 0026.026 26.025z" fill="#85c3e9"/><rect fill="none" height="152.716" rx="26.026" stroke="#3e4147" stroke-linecap="round" stroke-linejoin="round" stroke-width="2" width="84.15" x="1377.067" y="2437.994"/><rect fill="#d8e9f7" height="11.997" rx="5.999" stroke="#3e4147" stroke-linecap="round" stroke-linejoin="round" stroke-width="2" width="64.693" x="1386.796" y="2590.413"/><path d="M1418.528 2590.412h-25.734a6 6 0 000 12h23.55c-.826-3.812.207-8.19 2.184-12z" fill="#85c3e9"/><rect fill="none" height="11.997" rx="5.999" stroke="#3e4147" stroke-linecap="round" stroke-linejoin="round" stroke-width="2" width="64.693" x="1386.796" y="2590.413"/><rect fill="#d8e9f7" height="11.997" rx="5.999" stroke="#3e4147" stroke-linecap="round" stroke-linejoin="round" stroke-width="2" width="94.819" x="1372.168" y="2484.941"/><path d="M1408.106 2484.941h-29.94a6.016 6.016 0 00-6 6 6.016 6.016 0 006 6h28.656c-1.372-3.736-.753-8.135 1.284-12z" fill="#85c3e9"/><rect fill="none" height="11.997" rx="5.999" stroke="#3e4147" stroke-linecap="round" stroke-linejoin="round" stroke-width="2" width="94.819" x="1372.168" y="2484.941"/><ellipse cx="5.23" cy="12.814" fill="#fff" rx="5.23" ry="12.814" transform="rotate(-61.731 2764.253 32.106)"/><ellipse cx="1444.362" cy="2489.001" fill="#fff" rx="19.332" ry="1.641"/><ellipse cx="1433.708" cy="2594.624" fill="#fff" rx="14.329" ry="1.641"/></g></svg>
